# xmcd
# 
# Track frame offsets:
#     150
#     8139
#     18789
#     32033
#     47373
#     55712
#     64674
#     75735
#     94445
#     100676
#     108760
#     122229
#     135455
# 
# Disc length: 2121
# 
# Revision: 2
# Processed by: cddbd v1.5.2PL0 Copyright (c) Steve Scherf et al.
# Submitted via: fre:ac v1.0.31
# 
DISCID=9608470d
DTITLE=Paco Ibanez - Paco Ibanez - 3
DYEAR=1969
DGENRE=Folk
TTITLE0=A Galopar
TTITLE1=Nocturno
TTITLE2=Un Espanol Habla de su Tierra
TTITLE3=Como Tu
TTITLE4=Villancico
TTITLE5=Era un Nino que Soñaba
TTITLE6=Proverbios y Cantares
TTITLE7=Palabras para Julia
TTITLE8=Erase una Vez
TTITLE9=Me lo Decia mi Abuelito
TTITLE10=Lo que Puede el Dinero
TTITLE11=Nana de la Mora
TTITLE12=Coplas por la Muerte de su Padre
EXTD=
EXTT0=Rafael Alberti - Paco Ibanez\n
EXTT1=Rafael Alberti - Paco Ibanez\n
EXTT2=Luis Cernuda - Paco Ibanez\n
EXTT3=Leon Felipe - Paco Ibanez\n
EXTT4=Gloria Fuertes - Paco Ibanez\n
EXTT5=Antonio Machado - Paco Ibanez\n
EXTT6=Antonio Machado - Paco Ibanez\n
EXTT7=Jose Agustin Goytisolo - Paco Ibanez\n
EXTT8=Jose Agustin Goytisolo - Paco Ibanez\n
EXTT9=Jose Agustin Goytisolo - Paco Ibanez\n
EXTT10=Juan Ruiz Arcipreste de Hita - Paco \nIbanez\n
EXTT11=Angel Valente - Paco Ibanez\n
EXTT12=Jorge Manrique - Paco Ibanez\n
PLAYORDER=
